<svg width="276" height="276" viewBox="0 0 276 276" fill="none" xmlns="http://www.w3.org/2000/svg">
<circle cx="136.765" cy="138.188" r="27.5" transform="rotate(135.211 136.765 138.188)" stroke="#E91D8B" stroke-width="4"/>
<path d="M123.432 223.909L136.553 183.704C136.643 183.428 137.032 183.427 137.123 183.703L150.372 223.866C150.392 223.926 150.392 223.991 150.373 224.051L137.253 265.128C137.165 265.406 136.772 265.407 136.682 265.129L123.432 224.094C123.413 224.034 123.413 223.969 123.432 223.909Z" stroke="#E91D8B" stroke-width="4"/>
<path d="M50.003 151.795L9.79788 138.675C9.52243 138.585 9.52181 138.196 9.79697 138.105L49.96 124.856C50.0201 124.836 50.085 124.836 50.1453 124.855L91.2224 137.974C91.5003 138.063 91.5009 138.456 91.2234 138.546L50.1882 151.796C50.128 151.815 50.0632 151.815 50.003 151.795Z" stroke="#E91D8B" stroke-width="4"/>
<path d="M222.492 151.52L182.287 138.4C182.012 138.31 182.011 137.921 182.286 137.83L222.45 124.581C222.51 124.561 222.574 124.561 222.635 124.58L263.712 137.699C263.99 137.788 263.99 138.181 263.713 138.271L222.678 151.521C222.617 151.54 222.553 151.54 222.492 151.52Z" stroke="#E91D8B" stroke-width="4"/>
<path d="M123.157 51.4288L136.278 11.2237C136.367 10.9483 136.757 10.9477 136.848 11.2228L150.096 51.3859C150.116 51.446 150.116 51.5108 150.097 51.5711L136.978 92.6483C136.889 92.9261 136.496 92.9268 136.407 92.6492L123.157 51.6141C123.137 51.5539 123.137 51.489 123.157 51.4288Z" stroke="#E91D8B" stroke-width="4"/>
<path d="M148.011 173.902L164.811 166.596C164.88 166.566 164.935 166.511 164.966 166.443L172.395 149.697C172.467 149.536 172.657 149.467 172.815 149.543L200.771 162.971C200.828 162.998 200.876 163.043 200.908 163.099L252.998 254.87C253.149 255.136 252.852 255.431 252.587 255.278L161.202 202.513C161.147 202.481 161.103 202.432 161.075 202.375L147.854 174.321C147.779 174.162 147.85 173.972 148.011 173.902Z" stroke="#E91D8B" stroke-width="4"/>
<path d="M102.051 150.446L109.357 167.245C109.387 167.314 109.442 167.37 109.511 167.4L126.256 174.83C126.417 174.901 126.486 175.091 126.41 175.25L112.983 203.205C112.955 203.263 112.91 203.31 112.855 203.342L21.0833 255.433C20.8174 255.584 20.5225 255.287 20.6754 255.022L73.4408 163.637C73.4727 163.581 73.5209 163.537 73.5787 163.51L101.632 150.288C101.791 150.213 101.981 150.284 102.051 150.446Z" stroke="#E91D8B" stroke-width="4"/>
<path d="M125.52 102.475L108.72 109.781C108.651 109.811 108.596 109.866 108.566 109.935L101.136 126.68C101.065 126.841 100.875 126.911 100.716 126.834L72.7606 113.407C72.7029 113.379 72.6551 113.334 72.6235 113.279L20.5328 21.5074C20.3819 21.2414 20.679 20.9466 20.9438 21.0995L112.329 73.8648C112.384 73.8968 112.428 73.945 112.456 74.0028L125.677 102.056C125.752 102.216 125.681 102.405 125.52 102.475Z" stroke="#E91D8B" stroke-width="4"/>
<path d="M173.481 127.952L166.175 111.152C166.145 111.083 166.09 111.028 166.021 110.997L149.276 103.568C149.115 103.496 149.045 103.306 149.122 103.148L162.549 75.1923C162.577 75.1347 162.622 75.0869 162.677 75.0553L254.448 22.9646C254.714 22.8137 255.009 23.1107 254.856 23.3755L202.091 114.761C202.059 114.816 202.011 114.86 201.953 114.888L173.9 128.109C173.74 128.184 173.551 128.113 173.481 127.952Z" stroke="#E91D8B" stroke-width="4"/>
</svg>
