<svg width="331" height="331" viewBox="0 0 331 331" fill="none" xmlns="http://www.w3.org/2000/svg">
<path d="M264.646 64.9273C264.903 64.803 265.172 65.0721 265.047 65.3282L237.272 122.547C237.182 122.732 236.935 122.774 236.79 122.628L207.347 93.185C207.201 93.0392 207.242 92.793 207.428 92.703L264.646 64.9273Z" stroke="#D89B00" stroke-width="4"/>
<path d="M64.9222 65.3282C64.7979 65.0721 65.0669 64.803 65.3231 64.9273L122.542 92.703C122.727 92.7931 122.769 93.0392 122.623 93.185L93.1799 122.628C93.034 122.774 92.7879 122.732 92.6979 122.547L64.9222 65.3282Z" stroke="#D89B00" stroke-width="4"/>
<path d="M265.047 264.651C265.172 264.908 264.902 265.177 264.646 265.052L207.428 237.277C207.242 237.187 207.201 236.941 207.347 236.795L236.79 207.352C236.935 207.206 237.182 207.247 237.272 207.433L265.047 264.651Z" stroke="#D89B00" stroke-width="4"/>
<path d="M65.3231 265.052C65.0669 265.177 64.7979 264.908 64.9222 264.651L92.6979 207.433C92.7879 207.247 93.034 207.206 93.1799 207.352L122.623 236.795C122.769 236.941 122.727 237.187 122.542 237.277L65.3231 265.052Z" stroke="#D89B00" stroke-width="4"/>
<path d="M165.46 3.1624C165.547 2.88115 165.945 2.88115 166.033 3.1624L190.406 81.5632C190.466 81.7563 190.322 81.9523 190.12 81.9523H141.373C141.171 81.9523 141.026 81.7563 141.086 81.5632L165.46 3.1624Z" stroke="#D89B00" stroke-width="4"/>
<path d="M328.335 165.465C328.616 165.552 328.616 165.95 328.335 166.038L249.934 190.411C249.741 190.471 249.545 190.327 249.545 190.125V141.378C249.545 141.176 249.741 141.032 249.934 141.092L328.335 165.465Z" stroke="#D89B00" stroke-width="4"/>
<path d="M166.033 328.34C165.945 328.622 165.547 328.622 165.46 328.34L141.086 249.94C141.026 249.747 141.171 249.551 141.373 249.551H190.12C190.322 249.551 190.466 249.747 190.406 249.94L166.033 328.34Z" stroke="#D89B00" stroke-width="4"/>
<path d="M3.15721 166.038C2.87596 165.95 2.87596 165.552 3.15721 165.465L81.558 141.092C81.7511 141.032 81.9471 141.176 81.9471 141.378V190.125C81.9471 190.327 81.7511 190.471 81.558 190.411L3.15721 166.038Z" stroke="#D89B00" stroke-width="4"/>
<circle cx="165.746" cy="165.751" r="69.492" stroke="#D89B00" stroke-width="4"/>
<circle cx="165.746" cy="165.751" r="36.7899" stroke="#D89B00" stroke-width="4"/>
<circle cx="165.746" cy="165.751" r="16.351" stroke="#D89B00" stroke-width="4"/>
</svg>
